<?xml version="1.0" encoding="UTF-8" standalone="no"?>
<!DOCTYPE svg PUBLIC "-//W3C//DTD SVG 1.1//EN"
 "http://www.w3.org/Graphics/SVG/1.1/DTD/svg11.dtd">
<!-- Generated by graphviz version 2.43.0 (0)
 -->
<!-- Title: %3 Pages: 1 -->
<svg width="534pt" height="260pt"
 viewBox="0.00 0.00 533.99 260.00" xmlns="http://www.w3.org/2000/svg" xmlns:xlink="http://www.w3.org/1999/xlink">
<g id="graph0" class="graph" transform="scale(1 1) rotate(0) translate(4 256)">
<title>%3</title>
<polygon fill="white" stroke="transparent" points="-4,4 -4,-256 529.99,-256 529.99,4 -4,4"/>
<!-- 5 -->
<g id="node1" class="node">
<title>5</title>
<ellipse fill="none" stroke="black" cx="262.49" cy="-234" rx="61.19" ry="18"/>
<text text-anchor="middle" x="262.49" y="-230.3" font-family="Times,serif" font-size="14.00">4E3B4A3C</text>
</g>
<!-- 6 -->
<g id="node2" class="node">
<title>6</title>
<ellipse fill="none" stroke="black" cx="193.49" cy="-162" rx="59.59" ry="18"/>
<text text-anchor="middle" x="193.49" y="-158.3" font-family="Times,serif" font-size="14.00">313E493B</text>
</g>
<!-- 5&#45;&#45;6 -->
<g id="edge1" class="edge">
<title>5&#45;&#45;6</title>
<path fill="none" stroke="black" d="M246.14,-216.41C235.14,-205.25 220.7,-190.6 209.73,-179.47"/>
</g>
<!-- 9 -->
<g id="node3" class="node">
<title>9</title>
<ellipse fill="none" stroke="black" cx="331.49" cy="-162" rx="59.59" ry="18"/>
<text text-anchor="middle" x="331.49" y="-158.3" font-family="Times,serif" font-size="14.00">4B3F393F</text>
</g>
<!-- 5&#45;&#45;9 -->
<g id="edge2" class="edge">
<title>5&#45;&#45;9</title>
<path fill="none" stroke="black" d="M278.85,-216.41C289.85,-205.25 304.29,-190.6 315.26,-179.47"/>
</g>
<!-- 7 -->
<g id="node4" class="node">
<title>7</title>
<ellipse fill="none" stroke="black" cx="58.49" cy="-90" rx="58.49" ry="18"/>
<text text-anchor="middle" x="58.49" y="-86.3" font-family="Times,serif" font-size="14.00">39697C69</text>
</g>
<!-- 6&#45;&#45;7 -->
<g id="edge3" class="edge">
<title>6&#45;&#45;7</title>
<path fill="none" stroke="black" d="M164.86,-146.15C141.95,-134.28 109.98,-117.7 87.08,-105.82"/>
</g>
<!-- 8 -->
<g id="node5" class="node">
<title>8</title>
<ellipse fill="none" stroke="black" cx="194.49" cy="-90" rx="59.29" ry="18"/>
<text text-anchor="middle" x="194.49" y="-86.3" font-family="Times,serif" font-size="14.00">3A697C69</text>
</g>
<!-- 6&#45;&#45;8 -->
<g id="edge4" class="edge">
<title>6&#45;&#45;8</title>
<path fill="none" stroke="black" d="M193.74,-143.7C193.9,-132.85 194.1,-118.92 194.25,-108.1"/>
</g>
<!-- 10 -->
<g id="node8" class="node">
<title>10</title>
<ellipse fill="none" stroke="black" cx="331.49" cy="-90" rx="59.59" ry="18"/>
<text text-anchor="middle" x="331.49" y="-86.3" font-family="Times,serif" font-size="14.00">3B697C69</text>
</g>
<!-- 9&#45;&#45;10 -->
<g id="edge7" class="edge">
<title>9&#45;&#45;10</title>
<path fill="none" stroke="black" d="M331.49,-143.7C331.49,-132.85 331.49,-118.92 331.49,-108.1"/>
</g>
<!-- 11 -->
<g id="node9" class="node">
<title>11</title>
<ellipse fill="none" stroke="black" cx="467.49" cy="-90" rx="58.49" ry="18"/>
<text text-anchor="middle" x="467.49" y="-86.3" font-family="Times,serif" font-size="14.00">717C7865</text>
</g>
<!-- 9&#45;&#45;11 -->
<g id="edge8" class="edge">
<title>9&#45;&#45;11</title>
<path fill="none" stroke="black" d="M360.34,-146.15C383.42,-134.28 415.63,-117.7 438.69,-105.82"/>
</g>
<!-- 1 -->
<g id="node6" class="node">
<title>1</title>
<polygon fill="none" stroke="black" points="86.99,-36 29.99,-36 29.99,0 86.99,0 86.99,-36"/>
<text text-anchor="middle" x="58.49" y="-14.3" font-family="Times,serif" font-size="14.00">data1</text>
</g>
<!-- 7&#45;&#45;1 -->
<g id="edge5" class="edge">
<title>7&#45;&#45;1</title>
<path fill="none" stroke="black" d="M58.49,-71.7C58.49,-60.85 58.49,-46.92 58.49,-36.1"/>
</g>
<!-- 2 -->
<g id="node7" class="node">
<title>2</title>
<polygon fill="none" stroke="black" points="222.99,-36 165.99,-36 165.99,0 222.99,0 222.99,-36"/>
<text text-anchor="middle" x="194.49" y="-14.3" font-family="Times,serif" font-size="14.00">data2</text>
</g>
<!-- 8&#45;&#45;2 -->
<g id="edge6" class="edge">
<title>8&#45;&#45;2</title>
<path fill="none" stroke="black" d="M194.49,-71.7C194.49,-60.85 194.49,-46.92 194.49,-36.1"/>
</g>
<!-- 3 -->
<g id="node10" class="node">
<title>3</title>
<polygon fill="none" stroke="black" points="359.99,-36 302.99,-36 302.99,0 359.99,0 359.99,-36"/>
<text text-anchor="middle" x="331.49" y="-14.3" font-family="Times,serif" font-size="14.00">data3</text>
</g>
<!-- 10&#45;&#45;3 -->
<g id="edge9" class="edge">
<title>10&#45;&#45;3</title>
<path fill="none" stroke="black" d="M331.49,-71.7C331.49,-60.85 331.49,-46.92 331.49,-36.1"/>
</g>
<!-- 4 -->
<g id="node11" class="node">
<title>4</title>
<polygon fill="none" stroke="black" points="498.49,-36 436.49,-36 436.49,0 498.49,0 498.49,-36"/>
<text text-anchor="middle" x="467.49" y="-14.3" font-family="Times,serif" font-size="14.00">empty</text>
</g>
<!-- 11&#45;&#45;4 -->
<g id="edge10" class="edge">
<title>11&#45;&#45;4</title>
<path fill="none" stroke="black" d="M467.49,-71.7C467.49,-60.85 467.49,-46.92 467.49,-36.1"/>
</g>
</g>
</svg>
