<?xml version="1.0" encoding="UTF-8" standalone="no"?>
<!DOCTYPE svg PUBLIC "-//W3C//DTD SVG 1.1//EN"
 "http://www.w3.org/Graphics/SVG/1.1/DTD/svg11.dtd">
<!-- Generated by graphviz version 2.43.0 (0)
 -->
<!-- Title: %3 Pages: 1 -->
<svg width="306pt" height="188pt"
 viewBox="0.00 0.00 305.79 188.00" xmlns="http://www.w3.org/2000/svg" xmlns:xlink="http://www.w3.org/1999/xlink">
<g id="graph0" class="graph" transform="scale(1 1) rotate(0) translate(4 184)">
<title>%3</title>
<polygon fill="white" stroke="transparent" points="-4,4 -4,-184 301.79,-184 301.79,4 -4,4"/>
<!-- 4 -->
<g id="node1" class="node">
<title>4</title>
<ellipse fill="none" stroke="black" cx="146.6" cy="-162" rx="31.4" ry="18"/>
<text text-anchor="middle" x="146.6" y="-158.3" font-family="Times,serif" font-size="14.00"> &#160;&#160;20</text>
</g>
<!-- 2 -->
<g id="node2" class="node">
<title>2</title>
<ellipse fill="none" stroke="black" cx="106.6" cy="-90" rx="31.4" ry="18"/>
<text text-anchor="middle" x="106.6" y="-86.3" font-family="Times,serif" font-size="14.00"> &#160;&#160;10</text>
</g>
<!-- 4&#45;&#45;2 -->
<g id="edge1" class="edge">
<title>4&#45;&#45;2</title>
<path fill="none" stroke="black" d="M137.32,-144.76C130.95,-133.62 122.52,-118.87 116.1,-107.63"/>
</g>
<!-- 6 -->
<g id="node3" class="node">
<title>6</title>
<ellipse fill="none" stroke="black" cx="186.6" cy="-90" rx="31.4" ry="18"/>
<text text-anchor="middle" x="186.6" y="-86.3" font-family="Times,serif" font-size="14.00"> &#160;&#160;30</text>
</g>
<!-- 4&#45;&#45;6 -->
<g id="edge2" class="edge">
<title>4&#45;&#45;6</title>
<path fill="none" stroke="black" d="M155.87,-144.76C162.24,-133.62 170.67,-118.87 177.09,-107.63"/>
</g>
<!-- 1 -->
<g id="node4" class="node">
<title>1</title>
<ellipse fill="none" stroke="black" cx="28.6" cy="-18" rx="28.7" ry="18"/>
<text text-anchor="middle" x="28.6" y="-14.3" font-family="Times,serif" font-size="14.00"> &#160;&#160;&#160;5</text>
</g>
<!-- 2&#45;&#45;1 -->
<g id="edge3" class="edge">
<title>2&#45;&#45;1</title>
<path fill="none" stroke="black" d="M90.44,-74.5C76.96,-62.4 57.87,-45.27 44.47,-33.25"/>
</g>
<!-- 3 -->
<g id="node5" class="node">
<title>3</title>
<ellipse fill="none" stroke="black" cx="106.6" cy="-18" rx="31.4" ry="18"/>
<text text-anchor="middle" x="106.6" y="-14.3" font-family="Times,serif" font-size="14.00"> &#160;&#160;15</text>
</g>
<!-- 2&#45;&#45;3 -->
<g id="edge4" class="edge">
<title>2&#45;&#45;3</title>
<path fill="none" stroke="black" d="M106.6,-71.7C106.6,-60.85 106.6,-46.92 106.6,-36.1"/>
</g>
<!-- 5 -->
<g id="node6" class="node">
<title>5</title>
<ellipse fill="none" stroke="black" cx="186.6" cy="-18" rx="31.4" ry="18"/>
<text text-anchor="middle" x="186.6" y="-14.3" font-family="Times,serif" font-size="14.00"> &#160;&#160;25</text>
</g>
<!-- 6&#45;&#45;5 -->
<g id="edge5" class="edge">
<title>6&#45;&#45;5</title>
<path fill="none" stroke="black" d="M186.6,-71.7C186.6,-60.85 186.6,-46.92 186.6,-36.1"/>
</g>
<!-- 7 -->
<g id="node7" class="node">
<title>7</title>
<ellipse fill="none" stroke="black" cx="266.6" cy="-18" rx="31.4" ry="18"/>
<text text-anchor="middle" x="266.6" y="-14.3" font-family="Times,serif" font-size="14.00"> &#160;&#160;35</text>
</g>
<!-- 6&#45;&#45;7 -->
<g id="edge6" class="edge">
<title>6&#45;&#45;7</title>
<path fill="none" stroke="black" d="M203.17,-74.5C216.9,-62.48 236.32,-45.49 250.04,-33.49"/>
</g>
</g>
</svg>
